 <svg width="1500" height="667" viewBox="0 0 1500 667" fill="none" xmlns="http://www.w3.org/2000/svg">
          <rect x="-11.7471" y="-38" width="1511.49" height="646.891" fill="url(#paint0_linear)"/>
           <path d="M-23.6622 512.638C-23.6622 512.638 -17.1961 549.511 245.324 527.914C507.844 506.316 718.636 386.741 1046.46 512.638C1374.29 638.534 1534 584.277 1534 584.277L1501.67 667L-45 638.028" fill="white"/>
           <path d="M199.897 302.032C199.585 302.032 199.321 301.924 199.105 301.708C198.889 301.492 198.781 301.228 198.781 300.916C198.781 300.604 198.889 300.34 199.105 300.124C199.321 299.908 199.585 299.8 199.897 299.8C200.197 299.8 200.449 299.908 200.653 300.124C200.869 300.34 200.977 300.604 200.977 300.916C200.977 301.228 200.869 301.492 200.653 301.708C200.449 301.924 200.197 302.032 199.897 302.032Z" fill="white"/>
             <defs>
               <linearGradient id="paint0_linear" x1="865.923" y1="-188.219" x2="912.252" y2="932.023" gradientUnits="userSpaceOnUse">
                <stop offset="0.0230714" stop-color="#FD749B"/>
                 <stop offset="0.661385" stop-color="#ACA5FF"/>
                </linearGradient>
             </defs>
      </svg>