<?xml version="1.0" encoding="utf-8"?>
<!-- Generator: Adobe Illustrator 19.0.0, SVG Export Plug-In . SVG Version: 6.00 Build 0)  -->
<svg version="1.1" id="Calque_1" xmlns="http://www.w3.org/2000/svg" xmlns:xlink="http://www.w3.org/1999/xlink" x="0px" y="0px"
	 viewBox="0 0 7086.6 5669.3" style="enable-background:new 0 0 7086.6 5669.3;" xml:space="preserve">
<style type="text/css">
	.st0{opacity:0.3;fill:#D01970;}
	.st1{opacity:0.3;fill:#5A4099;}
</style>
<g id="XMLID_2_">
	<path id="XMLID_5_" class="st0" d="M6237.8,5938.5c9.6-14.5,15.8-30.6,24.2-45.2c28.4-49.4,177.7-230.7,377.7-106.8
		c49.6,30.7,86.3,79.2,137,113c334,222.8,754.3,179.2,938.8-97.3c184.5-276.5,63.3-681.3-270.7-904.1
		c-334-222.8-826.3-276.3-930.1,85.1c-26.4,92-21.5,258.3-70.1,370c-76.2,174.8-322.4,94.6-426.2,50.1
		c-171.8-73.7-354.3-60.5-443.6,73.4c-98.9,148.3-19.5,394.6,159.6,514C5913.5,6110.1,6138.9,6086.8,6237.8,5938.5z"/>
	<path id="XMLID_4_" class="st1" d="M1022.8,5216.8c-100.8-3.3-190.1,72.3-286,34.3c-194.8-77.4-178.4-297.3-407.5-410.2
		c-273.3-134.7-587.6,92-657.6,370.3c-70.1,278.3,110.8,563.7,403.9,637.5c195.7,49.3,392-8.3,521.7-134.8
		c43,82.5,119.1,146.8,215.6,171.1c181,45.6,421.1-41.7,478.6-222.1C1378.7,5389.2,1208.5,5222.9,1022.8,5216.8z"/>
	<path id="XMLID_3_" class="st1" d="M5266.7-526.2C4701.2,16.1,4628.1,693.4,5103.6,986.6c178.4,110,417.9,126.5,656.5,129
		c411.4,4.4,1515.7,108.9,1357.7,1281.3c-75.5,560.3-40.6,1079.4,338.2,1622.4c393.4,586.6,1444.6,601.7,2369.5,27.8
		c938.2-582.2,1390.9-1550.1,1011.3-2161.9c-32.1-51.7-69.2-99.1-110.7-142.5c-164.1-253.5-405.9-479.4-678-647.2
		c-467.2-288.1-312.9-1058.6-978.1-944.1c-247.2,42.6-1630.4,743.4-1651-274c-6.6-325.3,24.6-674.7-267.4-854.7
		C6676-1270.5,5832.2-1068.6,5266.7-526.2z"/>
</g>
</svg>
