
<svg version="1.1" xmlns="http://www.w3.org/2000/svg" xmlns:xlink="http://www.w3.org/1999/xlink" x="0px" y="0px"
	 viewBox="0 0 750 500" style="enable-background:new 0 0 750 500;" xml:space="preserve">
<style type="text/css">
	.st0{fill:#D7EDFB;}
	.st1{fill:#FFFFFF;}
	.st2{fill:#E2EAFD;}
	.st3{opacity:0.4;fill:url(#SVGID_1_);}
	.st4{opacity:0.4;fill:#FF7FB8;}
	.st5{fill:url(#SVGID_2_);}$$$$$$$$
	.st6{opacity:0.2;fill:url(#SVGID_3_);}
	.st7{fill:url(#SVGID_4_);}
</style>
<g id="BACKGROUND">
	<rect class="st0" width="750" height="500"/>
</g>
<g id="OBJECTS">
	<g>
		<g>
			<rect x="0" y="1.3" class="st1" width="749.9" height="498.4"/>
			<path class="st2" d="M379.6,1.3c0,0,84.5,86.9,54.1,152.6c-30.4,65.7-126.8,48.3-126.8,141c0,92.7,5.1,177.7-86.2,204.8h529.2
				V1.3H379.6z"/>
			<g>
				<linearGradient id="SVGID_1_" gradientUnits="userSpaceOnUse" x1="192.5753" y1="250.6487" x2="749.8961" y2="250.6487">
					<stop  offset="0" style="stop-color:#5050EF"/>
					<stop  offset="0" style="stop-color:#827AF5"/>
					<stop  offset="0.8137" style="stop-color:#F97DBA"/>
					<stop  offset="1" style="stop-color:#FF7FB8"/>
				</linearGradient>
				<path class="st3" d="M360,1.3c0,0,89,87,57,152.7c-32.1,65.7-133.5,48.3-133.5,141.1c0,92.8,5.3,177.8-90.8,204.9h557.3V1.3H360
					z"/>
			</g>
			<path class="st4" d="M495.8,1.6c0,0,55,47.1,34.2,92.2c-20.8,45.1-117.4,51-110,121.6c7.4,70.6,10.3,92.2-44.6,115.7
				c-54.9,23.5-93.1,72.6-81.5,168.6h456V1.6H495.8z"/>
			<linearGradient id="SVGID_2_" gradientUnits="userSpaceOnUse" x1="379.6204" y1="250.5208" x2="749.8437" y2="250.5208">
				<stop  offset="0" style="stop-color:#FFFFFF"/>
				<stop  offset="0" style="stop-color:#F752A1"/>
				<stop  offset="0" style="stop-color:#F152A4"/>
				<stop  offset="1" style="stop-color:#827AF5"/>
			</linearGradient>
			<path class="st5" d="M544.5,1.4c0,0,44.4,47.1,27.6,92.2c-16.8,45.1-94.9,51-88.9,121.6c6,70.6,8.3,92.2-36.1,115.7
				c-44.4,23.5-75.3,72.6-65.8,168.7h368.5V1.4H544.5z"/>
			<linearGradient id="SVGID_3_" gradientUnits="userSpaceOnUse" x1="604.0742" y1="499.4881" x2="604.0742" y2="-5.4642">
				<stop  offset="3.431373e-002" style="stop-color:#FF7FB8"/>
				<stop  offset="0.1569" style="stop-color:#F97FBB"/>
				<stop  offset="0.2001" style="stop-color:#F07FBF"/>
				<stop  offset="0.4591" style="stop-color:#C17DD6"/>
				<stop  offset="0.6881" style="stop-color:#9F7BE7"/>
				<stop  offset="0.8762" style="stop-color:#8A7AF1"/>
				<stop  offset="1" style="stop-color:#827AF5"/>
				<stop  offset="1" style="stop-color:#5050EF"/>
			</linearGradient>
			<path class="st6" d="M749.9-5.5c-6.4,34.2-20.7,71.6-50.4,103c-77.4,81.8-99,64.7-108.1,221.4c-9,156.7-133.3,180.5-133.3,180.5
				h291.7V-5.5z"/>
			<linearGradient id="SVGID_4_" gradientUnits="userSpaceOnUse" x1="684.4343" y1="499.744" x2="684.4343" y2="298.6247">
				<stop  offset="5.392157e-002" style="stop-color:#FF7FB8"/>
				<stop  offset="0.174" style="stop-color:#E87FC3"/>
				<stop  offset="0.433" style="stop-color:#BD7ED9"/>
				<stop  offset="0.6663" style="stop-color:#9E7DE8"/>
				<stop  offset="0.8632" style="stop-color:#8B7DF2"/>
				<stop  offset="1" style="stop-color:#847CF5"/>
			</linearGradient>
			<path class="st7" d="M749.9,298.6c-2.9,13.6-9.3,28.5-22.6,41c-34.8,32.6-44.4,25.8-48.5,88.2c-4,62.4-59.8,71.9-59.8,71.9h130.9
				V298.6z"/>
		</g>
	</g>
</g>
</svg>
