<?xml version="1.0" encoding="utf-8"?>
<!-- Generator: Adobe Illustrator 19.0.0, SVG Export Plug-In . SVG Version: 6.00 Build 0)  -->
<svg version="1.1" xmlns="http://www.w3.org/2000/svg" xmlns:xlink="http://www.w3.org/1999/xlink" x="0px" y="0px"
	 viewBox="0 0 3710 3710" style="enable-background:new 0 0 3710 3710;" xml:space="preserve">
<style type="text/css">
	.st0{fill:#FFFFFF;}
	.st1{fill:none;}
	.st2{font-family:'MyriadPro-Regular';}
	.st3{font-size:12px;}
	.st4{fill:url(#SVGID_1_);}
	.st5{opacity:0.5;clip-path:url(#SVGID_3_);}
	.st6{fill:#FCFDFE;}
	.st7{clip-path:url(#SVGID_6_);fill:url(#SVGID_7_);}
	.st8{opacity:0.5;clip-path:url(#SVGID_6_);}
	.st9{fill:url(#SVGID_8_);}
	.st10{fill:url(#SVGID_9_);}
	.st11{fill:url(#SVGID_10_);}
	.st12{fill:url(#SVGID_11_);}
	.st13{fill:url(#SVGID_12_);}
	.st14{fill:url(#SVGID_13_);}
	.st15{fill:url(#SVGID_14_);}
	.st16{fill:url(#SVGID_15_);}
	.st17{opacity:0.5;clip-path:url(#SVGID_17_);}
	.st18{clip-path:url(#SVGID_20_);fill:url(#SVGID_21_);}
	.st19{opacity:0.5;clip-path:url(#SVGID_20_);}
	.st20{fill:url(#SVGID_22_);}
	.st21{fill:url(#SVGID_23_);}
	.st22{fill:url(#SVGID_24_);}
	.st23{fill:url(#SVGID_25_);}
	.st24{fill:url(#SVGID_26_);}
	.st25{fill:url(#SVGID_27_);}
	.st26{fill:url(#SVGID_28_);}
	.st27{fill:url(#SVGID_29_);}
	.st28{opacity:0.5;clip-path:url(#SVGID_32_);}
	.st29{fill:url(#SVGID_33_);}
	.st30{fill:url(#SVGID_34_);}
	.st31{fill:url(#SVGID_35_);}
	.st32{fill:url(#SVGID_36_);}
	.st33{fill:url(#SVGID_37_);}
	.st34{fill:url(#SVGID_38_);}
	.st35{fill:url(#SVGID_39_);}
	.st36{fill:url(#SVGID_40_);}
	.st37{fill:#DE8BDF;}
	.st38{fill:#F4F7FA;}
	.st39{fill:url(#SVGID_41_);}
	.st40{fill:url(#SVGID_42_);}
	.st41{fill:url(#SVGID_43_);}
	.st42{fill:url(#SVGID_44_);}
	.st43{fill:url(#SVGID_45_);}
	.st44{fill:url(#SVGID_46_);}
	.st45{fill:url(#SVGID_47_);}
	.st46{fill:url(#SVGID_48_);}
	.st47{opacity:0.3;fill:url(#SVGID_49_);}
	.st48{opacity:0.3;fill:url(#SVGID_50_);}
	.st49{fill:#9894FF;}
	.st50{font-family:'MyriadPro-SemiboldIt';}
	.st51{font-size:120.3827px;}
</style>
<g id="Background">
	<g>
		<g>
			<rect class="st0" width="3710" height="3710"/>
		</g>
	</g>
</g>
<g id="Illustration">
	<g>
		<path class="st1" d="M3234.9,1790.6c47.2,240.7,142.8,728.4-86,1054.8c-408.8,583.1-1809.8,558.1-2423.6-196.2
			c-42.9-52.7-402.4-509-292.9-1089.4C573.5,811.9,1415.7,270.8,2084,417.4c422.8,92.8,693.5,442.6,803.3,584.7
			C2934.1,1062.6,3148.1,1347.7,3234.9,1790.6z"/>
		<text transform="matrix(1 0 0 1 1812.1802 401.8384)" class="st2 st3">aaso</text>
		<g>
			<g>
				<g>
					
						<linearGradient id="SVGID_1_" gradientUnits="userSpaceOnUse" x1="4362.6089" y1="599.3898" x2="4903.0776" y2="1489.1405" gradientTransform="matrix(0.9709 0.2394 -0.2394 0.9709 -3225.6853 -727.3289)">
						<stop  offset="0" style="stop-color:#FF9085"/>
						<stop  offset="1" style="stop-color:#FB6FBB"/>
					</linearGradient>
					<path class="st4" d="M1005.7,1765.6c0.8,0.6,1.6,1.2,2.4,1.8c47.7,36.3,106.2,67.6,178.6,88.6c14.4,3.1,28.8,6.2,43.2,9.3
						c20.5-30.9,34.4-63.9-5.7-88c-62.3-37.4-33.7-156.4-4.5-193.7c36.1-46.1,118.1-155.2,22.6-214.5
						c-79.4-49.4-140.8-65-118.5-177.8c22.3-112.8-20.7-197.7-123.3-216.8c-108-20.1-159-183.6-258-158.5
						c-172.6,43.7-97.7,323.9,68.5,441.9c166.2,118,43.6,157.5,15.4,247.3c-38.5,122.6,136.3,138.8,168.3,199
						C1005.3,1724.6,1007.7,1745.7,1005.7,1765.6z"/>
					<g>
						<defs>
							<path id="SVGID_2_" d="M983.3,1832.8l231.8,57.2c21.6-29.5,53.8-85.8,8.9-112.7c-62.3-37.4-33.7-156.4-4.5-193.7
								c36.1-46.1,118.1-155.2,22.6-214.5c-79.4-49.4-140.8-65-118.5-177.8c22.3-112.8-20.7-197.7-123.3-216.8
								c-108-20.1-159-183.6-258-158.5c-172.6,43.7-97.7,323.9,68.5,441.9c166.2,118,43.6,157.5,15.4,247.3
								c-38.5,122.6,136.3,138.8,168.3,199C1019.6,1751.4,999.6,1802.6,983.3,1832.8z"/>
						</defs>
						<clipPath id="SVGID_3_">
							<use xlink:href="#SVGID_2_"  style="overflow:visible;"/>
						</clipPath>
						<g class="st5">
							<path class="st6" d="M1101.5,1823.3l5.2,0.2C1124.5,1445.7,959,1061,674.6,819.6l-3.3,3.9
								C954.4,1064,1119.3,1447,1101.5,1823.3z"/>
							<path class="st6" d="M1093.6,1616.5l5,1.3c36.2-144.2,187.9-225.5,189.4-226.4l-2.4-4.6
								C1284,1387.6,1130.4,1470,1093.6,1616.5z"/>
							<path class="st6" d="M1102.9,1753.7l5-1.3c-37.1-146.1-298.1-231-300.7-231.8l-1.6,4.9
								C808.2,1526.3,1066.5,1610.4,1102.9,1753.7z"/>
							<path class="st6" d="M993.8,1259.4l5.1-0.8c-19.4-118,91.1-264.2,92.2-265.7l-4.1-3.1C1085.9,991.2,974,1139.2,993.8,1259.4z
								"/>
							<path class="st6" d="M876.3,1049.9l3.7-3.6c-95.2-97.5-279.1-103-281-103.1l-0.1,5.2C600.7,948.4,782.6,953.9,876.3,1049.9z"
								/>
						</g>
					</g>
				</g>
				<g>
					<defs>
						<path id="SVGID_4_" d="M1315.1,2012.9l-256.6-1.5c0,0-47.5-131.9,15.9-224.4c129.4-188.7-44.9-288.9-111.7-341.8
							c-100.7-79.7-154.6-193.9-5.6-242.6c149-48.7,0.9-280-180.2-385.3c-177.2-103.1-96.2-477.6,307.8-289.7
							c241.3,112.2,201.9,368.5,212.8,502.7s210.3,146.5,141,309.9c-59.1,139.6-170.5,241-86.6,337.7
							C1436,1774.5,1444.1,1882.4,1315.1,2012.9z"/>
					</defs>
					<linearGradient id="SVGID_5_" gradientUnits="userSpaceOnUse" x1="688.1837" y1="1244.2242" x2="1453.1519" y2="1244.2242">
						<stop  offset="4.901961e-002" style="stop-color:#949BFF"/>
						<stop  offset="0.9461" style="stop-color:#FF94D0"/>
						<stop  offset="0.9755" style="stop-color:#000000"/>
					</linearGradient>
					<use xlink:href="#SVGID_4_"  style="overflow:visible;fill:url(#SVGID_5_);"/>
					<clipPath id="SVGID_6_">
						<use xlink:href="#SVGID_4_"  style="overflow:visible;"/>
					</clipPath>
					
						<linearGradient id="SVGID_7_" gradientUnits="userSpaceOnUse" x1="3201.7532" y1="548.1067" x2="2691.0051" y2="1999.7079" gradientTransform="matrix(-1 -5.936536e-003 -5.936536e-003 1 4074.8735 -12.1108)">
						<stop  offset="4.901961e-002" style="stop-color:#949BFF"/>
						<stop  offset="0.9461" style="stop-color:#FF94D0"/>
						<stop  offset="0.9755" style="stop-color:#000000"/>
					</linearGradient>
					<path class="st7" d="M1315.1,2012.9l-256.6-1.5c0,0-47.5-131.9,15.9-224.4c129.4-188.7-44.9-288.9-111.7-341.8
						c-100.7-79.7-144.6-182.3-22.6-247.9c138-74.2,17.9-274.7-163.2-380.1c-177.2-103.1-96.2-477.6,307.8-289.7
						c241.3,112.2,201.9,368.5,212.8,502.7s210.3,146.5,141,309.9c-59.1,139.6-170.5,241-86.6,337.7
						C1436,1774.5,1444.1,1882.4,1315.1,2012.9z"/>
					<g class="st8">
						<linearGradient id="SVGID_8_" gradientUnits="userSpaceOnUse" x1="643.867" y1="1293.719" x2="1240.3665" y2="1293.719">
							<stop  offset="4.901961e-002" style="stop-color:#949BFF"/>
							<stop  offset="0.9461" style="stop-color:#FF94D0"/>
							<stop  offset="0.9755" style="stop-color:#000000"/>
						</linearGradient>
						<path class="st9" d="M1203.9,2036l-5.3-1c0.6-3.3,61.9-333.5,24-679.2c-34.9-318.5-163.7-715.6-578.7-799.1l1.1-5.3
							C829.7,588.6,974,689.9,1074,852.6c79.8,129.9,131.7,299.1,154,502.8C1266,1701.8,1204.5,2032.7,1203.9,2036z"/>
						<linearGradient id="SVGID_9_" gradientUnits="userSpaceOnUse" x1="1063.4817" y1="703.3935" x2="1117.8282" y2="703.3935">
							<stop  offset="4.901961e-002" style="stop-color:#949BFF"/>
							<stop  offset="0.9461" style="stop-color:#FF94D0"/>
							<stop  offset="0.9755" style="stop-color:#000000"/>
						</linearGradient>
						<path class="st10" d="M1112.8,922.3l-5.4-0.7c23.3-178.8-43.3-433.3-44-435.8l5.2-1.4C1069.4,487,1136.3,742.5,1112.8,922.3z"
							/>
						<linearGradient id="SVGID_10_" gradientUnits="userSpaceOnUse" x1="687.5743" y1="776.3016" x2="1046.1592" y2="776.3016">
							<stop  offset="4.901961e-002" style="stop-color:#949BFF"/>
							<stop  offset="0.9461" style="stop-color:#FF94D0"/>
							<stop  offset="0.9755" style="stop-color:#000000"/>
						</linearGradient>
						<path class="st11" d="M1043.3,815.8c-181.6-114.7-352.3-61.2-354-60.6l-1.7-5.1c1.7-0.6,174.7-54.9,358.6,61.2L1043.3,815.8z"
							/>
						<linearGradient id="SVGID_11_" gradientUnits="userSpaceOnUse" x1="825.6592" y1="1420.0883" x2="1240.34" y2="1420.0883">
							<stop  offset="4.901961e-002" style="stop-color:#949BFF"/>
							<stop  offset="0.9461" style="stop-color:#FF94D0"/>
							<stop  offset="0.9755" style="stop-color:#000000"/>
						</linearGradient>
						<path class="st12" d="M1235.1,1583.2c-59-255.7-406-320.4-409.4-320.7l0.2-5.4c3.4,0,354.9,67,414.5,324.9L1235.1,1583.2z"/>
						<linearGradient id="SVGID_12_" gradientUnits="userSpaceOnUse" x1="1232.0793" y1="1336.0938" x2="1450.3145" y2="1336.0938">
							<stop  offset="4.901961e-002" style="stop-color:#949BFF"/>
							<stop  offset="0.9461" style="stop-color:#FF94D0"/>
							<stop  offset="0.9755" style="stop-color:#000000"/>
						</linearGradient>
						<path class="st13" d="M1237.4,1475l-5.3-1.1c35.1-163.8,213.6-275.5,215.4-276.6l2.8,4.6
							C1448.5,1202.9,1272,1313.5,1237.4,1475z"/>
						<linearGradient id="SVGID_13_" gradientUnits="userSpaceOnUse" x1="1056.9807" y1="1890.5929" x2="1212.4619" y2="1890.5929">
							<stop  offset="4.901961e-002" style="stop-color:#949BFF"/>
							<stop  offset="0.9461" style="stop-color:#FF94D0"/>
							<stop  offset="0.9755" style="stop-color:#000000"/>
						</linearGradient>
						<path class="st14" d="M1207.1,1982.8c-7.2-99.4-148.7-179-150.1-179.8l2.6-4.7c5.9,3.3,145.4,81.7,152.9,184.1L1207.1,1982.8z
							"/>
						<linearGradient id="SVGID_14_" gradientUnits="userSpaceOnUse" x1="1217.3003" y1="1804.4137" x2="1402.7117" y2="1804.4137">
							<stop  offset="4.901961e-002" style="stop-color:#949BFF"/>
							<stop  offset="0.9461" style="stop-color:#FF94D0"/>
							<stop  offset="0.9755" style="stop-color:#000000"/>
						</linearGradient>
						<path class="st15" d="M1222.6,1904.8l-5.3-0.9c13.7-77.6,131.7-163.5,170.5-191.7c5.5-4,10.2-7.4,10.9-8.2l4,3.6
							c-1,1.1-4.1,3.4-11.8,9C1352.6,1744.5,1236,1829.4,1222.6,1904.8z"/>
					</g>
				</g>
				<g>
					
						<linearGradient id="SVGID_15_" gradientUnits="userSpaceOnUse" x1="-1225.9583" y1="457.6456" x2="-589.5785" y2="2129.7878" gradientTransform="matrix(-0.9977 -6.783121e-002 -6.783121e-002 0.9977 1663.5631 95.524)">
						<stop  offset="0" style="stop-color:#FF7FFC"/>
						<stop  offset="1" style="stop-color:#977FFF"/>
					</linearGradient>
					<path class="st16" d="M2480.8,1869.8c28.1,61.1,1,122-24.9,163c-6.2,0-9.7,1.7-16,3.2c-56.2,13.5-82.5,6.5-139.6,10.5
						c-12.3,0.9-48.8-8.4-63.4-13.2l-27.2-9.5c0,0-47.9-148.5,28.1-189.2c76-40.8,47.3-188.5,41.1-269
						c-16.7-218.5,219.3-198,220.3-480.5c0.3-75.1-24.4-218.5,39.1-278.2c72.3-68,124.9-1,171.4-57.9
						c72.8-88.9,190.5-120.6,260.4-28.7c69,90.7-15.6,270.6-225.1,414.9c-138.6,120.5-140.8,156.7-130.2,244.9
						c7.5,61.7,65.9,222.7-18,286.7C2512.9,1730.8,2448.7,1800,2480.8,1869.8z"/>
					<g>
						<defs>
							<path id="SVGID_16_" d="M2419.3,2082.6l-205.1-53.4c0,0-52.5-153.9,23.5-194.6c76-40.8,47.3-188.5,41.1-269
								c-16.7-218.5,219.3-198,220.3-480.5c0.3-75.1-24.4-218.5,39.1-278.2c72.3-68,124.9-1,171.4-57.9
								c72.8-88.9,190.5-120.6,260.4-28.7c69,90.7-15.6,270.6-225.1,414.9c-138.6,120.5-140.8,156.7-130.2,244.9
								c7.5,61.7,65.9,222.7-18,286.7c-83.9,64-148.2,133.2-116.1,203C2529.6,1976,2419.3,2082.6,2419.3,2082.6z"/>
						</defs>
						<clipPath id="SVGID_17_">
							<use xlink:href="#SVGID_16_"  style="overflow:visible;"/>
						</clipPath>
						<g class="st17">
							<path class="st6" d="M2330,2048.8l-4.2-0.5c3.2-24.8,6.7-49.8,10.4-74.3c27.6-181.3,71.2-353.4,129.4-511.6
								c49.4-134,110-260,180.1-374.4c56.4-92,119.3-177,186.8-252.7c47.5-53.2,96.8-101.3,146.6-142.9c8.7-7.3,17.9-14.2,26.9-20.9
								c11.9-8.9,24.3-18.2,35.3-28.2l2.8,3.1c-11.2,10.2-23.6,19.5-35.6,28.5c-8.9,6.7-18.2,13.6-26.7,20.8
								c-49.6,41.5-98.8,89.4-146.1,142.5c-67.4,75.5-130.1,160.3-186.4,252.1c-70,114.1-130.5,239.8-179.7,373.6
								c-58.2,157.9-101.6,329.8-129.2,510.8C2336.6,1999.1,2333.1,2024,2330,2048.8z"/>
							<path class="st6" d="M2569.7,1232.9l-3.8-1.8c77-163,10.5-464.8,9.8-467.8l4.1-0.9C2580.6,765.4,2647.4,1068.5,2569.7,1232.9
								z"/>
							<path class="st6" d="M2394.3,1707.9l-4-1.3c39.4-116.9,258.7-206.7,260.9-207.6l1.6,3.9
								C2650.6,1503.7,2433.1,1592.8,2394.3,1707.9z"/>
							<path class="st6" d="M2377.7,1776.2l-4.2-0.6c11.8-79.7-14.7-194.6-74.6-323.7c-3-6.5-3-6.5-2.9-7.3l4.2,0.6l-2.1-0.3l2-0.5
								c0.2,0.5,1.3,2.9,2.6,5.7C2363,1579.9,2389.6,1695.7,2377.7,1776.2z"/>
							<path class="st6" d="M2336.4,2003.6l-3.8-1.8c37.6-80.4,165.3-111.8,166.6-112.1l1,4.1
								C2498.9,1894.1,2373.1,1925.1,2336.4,2003.6z"/>
							<path class="st6" d="M2323.6,2049.2c-15.7-69.8-51.9-137.4-110.7-206.6l3.2-2.7c59.3,69.8,95.8,137.9,111.6,208.4
								L2323.6,2049.2z"/>
							<path class="st6" d="M2796.6,883.4l-3.7-2c47.9-88.3,77.7-192.1,87.5-226.2c2.4-8.3,3.2-11.2,3.7-12.1l3.8,1.8
								c-0.3,0.7-1.7,5.5-3.4,11.4C2874.6,690.6,2844.7,794.7,2796.6,883.4z"/>
							<path class="st6" d="M2697.6,1015.4l-2.9-3c67.3-65.9,255.6-63.3,263.5-63.1l-0.1,4.2
								C2956.2,953.4,2763.6,950.8,2697.6,1015.4z"/>
						</g>
					</g>
				</g>
				<g>
					<defs>
						<path id="SVGID_18_" d="M2146.3,2397.2l244.6,77.4c0,0,85.7-110.9,53.8-218.4c-65.2-219.4,131.5-261.1,211.3-290.9
							c120.3-45,206.7-137.1,79.8-229.1c-126.8-92.1,85.1-266.7,289.8-311.4c200.3-43.7,238.3-425-204-370.3
							c-264.1,32.7-305.3,288.7-356.9,413.1s-245.1,74.8-229.4,251.6c13.4,151,88.3,281.7-21.4,347.9
							C2104.4,2133.3,2063.5,2233.5,2146.3,2397.2z"/>
					</defs>
					<linearGradient id="SVGID_19_" gradientUnits="userSpaceOnUse" x1="2102.3743" y1="1761.835" x2="3168.6941" y2="1761.835">
						<stop  offset="2.941176e-002" style="stop-color:#C97FFF"/>
						<stop  offset="1" style="stop-color:#9C7AFE"/>
						<stop  offset="1" style="stop-color:#977FFF"/>
					</linearGradient>
					<use xlink:href="#SVGID_18_"  style="overflow:visible;fill:url(#SVGID_19_);"/>
					<clipPath id="SVGID_20_">
						<use xlink:href="#SVGID_18_"  style="overflow:visible;"/>
					</clipPath>
					
						<linearGradient id="SVGID_21_" gradientUnits="userSpaceOnUse" x1="5922.8579" y1="417.697" x2="5412.0962" y2="1869.3364" gradientTransform="matrix(0.9534 0.3015 -0.3015 0.9534 -2491.7627 -1073.693)">
						<stop  offset="2.941176e-002" style="stop-color:#C97FFF"/>
						<stop  offset="1" style="stop-color:#9C7AFE"/>
						<stop  offset="1" style="stop-color:#977FFF"/>
					</linearGradient>
					<path class="st18" d="M2146.3,2397.2l244.6,77.4c0,0,85.7-110.9,53.8-218.4c-65.2-219.4,131.5-261.1,211.3-290.9
						c120.3-45,193.6-129,97.7-228.9c-108.6-113,67.3-266.9,272-311.6c200.3-43.7,238.3-425-204-370.3
						c-264.1,32.7-305.3,288.7-356.9,413.1s-245.1,74.8-229.4,251.6c13.4,151,88.3,281.7-21.4,347.9
						C2104.4,2133.3,2063.5,2233.5,2146.3,2397.2z"/>
					<g class="st19">
						<linearGradient id="SVGID_22_" gradientUnits="userSpaceOnUse" x1="2244.9424" y1="1830.8484" x2="3232.8831" y2="1830.8484">
							<stop  offset="2.941176e-002" style="stop-color:#C97FFF"/>
							<stop  offset="1" style="stop-color:#9C7AFE"/>
							<stop  offset="1" style="stop-color:#977FFF"/>
						</linearGradient>
						<path class="st20" d="M2244.9,2453.4l5.4,0.7c0.4-3.3,43.5-336.4,185.8-653.8c131.1-292.3,375.6-630.8,796.2-582.7l0.6-5.4
							c-187.2-21.4-355.7,30.7-500.8,154.8c-115.9,99.1-217.2,244.2-301,431.2C2288.5,2116.3,2245.4,2450.1,2244.9,2453.4z"/>
						<linearGradient id="SVGID_23_" gradientUnits="userSpaceOnUse" x1="2673.6602" y1="1220.4479" x2="2854.7126" y2="1220.4479">
							<stop  offset="2.941176e-002" style="stop-color:#C97FFF"/>
							<stop  offset="1" style="stop-color:#9C7AFE"/>
							<stop  offset="1" style="stop-color:#977FFF"/>
						</linearGradient>
						<path class="st21" d="M2673.7,1421.5l5.3,1c32.7-177.3,174.3-399,175.7-401.2l-4.6-2.9
							C2848.7,1020.6,2706.6,1243.2,2673.7,1421.5z"/>
						<linearGradient id="SVGID_24_" gradientUnits="userSpaceOnUse" x1="2771.2563" y1="1356.6826" x2="3131.3032" y2="1356.6826">
							<stop  offset="2.941176e-002" style="stop-color:#C97FFF"/>
							<stop  offset="1" style="stop-color:#9C7AFE"/>
							<stop  offset="1" style="stop-color:#977FFF"/>
						</linearGradient>
						<path class="st22" d="M2772.6,1341.5c208.1-53.3,354.1,50,355.5,51l3.2-4.4c-1.5-1.1-149.4-105.9-360-51.9L2772.6,1341.5z"/>
						<linearGradient id="SVGID_25_" gradientUnits="userSpaceOnUse" x1="2349.718" y1="1918.4684" x2="2843.9783" y2="1918.4684">
							<stop  offset="2.941176e-002" style="stop-color:#C97FFF"/>
							<stop  offset="1" style="stop-color:#9C7AFE"/>
							<stop  offset="1" style="stop-color:#977FFF"/>
						</linearGradient>
						<path class="st23" d="M2354.4,2012.9c134.7-225.2,484.8-180.2,488.1-179.5l1.5-5.2c-3.2-1-358.3-45.3-494.3,181.9
							L2354.4,2012.9z"/>
						<linearGradient id="SVGID_26_" gradientUnits="userSpaceOnUse" x1="2266.6543" y1="1745.0476" x2="2392.2483" y2="1745.0476">
							<stop  offset="2.941176e-002" style="stop-color:#C97FFF"/>
							<stop  offset="1" style="stop-color:#9C7AFE"/>
							<stop  offset="1" style="stop-color:#977FFF"/>
						</linearGradient>
						<path class="st24" d="M2385.4,1909.2l5.4,0.5c16.9-166.6-118.6-327.8-120-329.4l-4.1,3.5
							C2268,1585.4,2402.1,1744.9,2385.4,1909.2z"/>
						<linearGradient id="SVGID_27_" gradientUnits="userSpaceOnUse" x1="2253.2278" y1="2336.6924" x2="2456.2905" y2="2336.6924">
							<stop  offset="2.941176e-002" style="stop-color:#C97FFF"/>
							<stop  offset="1" style="stop-color:#9C7AFE"/>
							<stop  offset="1" style="stop-color:#977FFF"/>
						</linearGradient>
						<path class="st25" d="M2258.2,2401.8c37.4-92.4,196.4-124.7,198-125l-1-5.3c-6.7,1.3-163.5,33.1-202,128.3L2258.2,2401.8z"/>
						<linearGradient id="SVGID_28_" gradientUnits="userSpaceOnUse" x1="2156.5969" y1="2200.5811" x2="2273.6829" y2="2200.5811">
							<stop  offset="2.941176e-002" style="stop-color:#C97FFF"/>
							<stop  offset="1" style="stop-color:#9C7AFE"/>
							<stop  offset="1" style="stop-color:#977FFF"/>
						</linearGradient>
						<path class="st26" d="M2267.4,2322.8l5.4,0.7c10.8-78.1-75.1-196-103.3-234.8c-4-5.5-7.4-10.2-7.9-11.2l-4.9,2.2
							c0.6,1.4,2.9,4.5,8.4,12.1C2192.9,2130.3,2277.9,2246.9,2267.4,2322.8z"/>
					</g>
				</g>
				<g>
					
						<linearGradient id="SVGID_29_" gradientUnits="userSpaceOnUse" x1="1800.6685" y1="1483.0665" x2="2341.1409" y2="2372.8232" gradientTransform="matrix(-0.9998 2.016423e-002 2.016423e-002 0.9998 4474.3984 125.8838)">
						<stop  offset="0" style="stop-color:#FFBFE9"/>
						<stop  offset="1" style="stop-color:#DFAAFF"/>
					</linearGradient>
					<path class="st27" d="M2377.8,2459.8c-0.9,0.4-1.8,0.8-2.8,1.3c-54.5,24.9-118.5,42.6-193.7,47.2c-14.7-0.1-29.4-0.3-44.2-0.4
						c-13.2-34.6-19.5-69.9,24.9-84.5c69-22.8,67.3-145.2,47-188c-25.1-52.9-81.1-177.4,25.1-214.2
						c88.3-30.7,151.6-32.4,154.7-147.4c3-114.9,63.7-188.3,167.9-184.4c109.7,4.1,195.5-144.2,286.6-97.9
						c158.7,80.6,24.2,337.5-163.9,416.1c-188.1,78.6-77.1,144.1-69.3,237.8c10.6,128-163.5,105.5-207.9,157.1
						C2387.2,2419.9,2380.2,2440,2377.8,2459.8z"/>
					<g>
						<defs>
							<path id="SVGID_30_" d="M2384.8,2530.4l-238.7,4.8c-14.6-33.5-33.6-95.5,16-111.9c69-22.8,67.3-145.2,47-188
								c-25.1-52.9-81.1-177.4,25.1-214.2c88.3-30.7,151.6-32.4,154.7-147.4c3-114.9,63.7-188.3,167.9-184.4
								c109.7,4.1,195.5-144.2,286.6-97.9c158.7,80.6,24.2,337.5-163.9,416.1c-188.1,78.6-77.1,144.1-69.3,237.8
								c10.6,128-163.5,105.5-207.9,157.1C2367.4,2442.9,2375.6,2497.2,2384.8,2530.4z"/>
						</defs>
						<linearGradient id="SVGID_31_" gradientUnits="userSpaceOnUse" x1="2374.0325" y1="1844.8563" x2="2684.1331" y2="2355.3616">
							<stop  offset="0" style="stop-color:#FFBFE9"/>
							<stop  offset="1" style="stop-color:#DFAAFF"/>
						</linearGradient>
						<use xlink:href="#SVGID_30_"  style="overflow:visible;fill:url(#SVGID_31_);"/>
						<clipPath id="SVGID_32_">
							<use xlink:href="#SVGID_30_"  style="overflow:visible;"/>
						</clipPath>
						<g class="st28">
							
								<linearGradient id="SVGID_33_" gradientUnits="userSpaceOnUse" x1="2266.5981" y1="2052.4355" x2="2911.1125" y2="2052.4355">
								<stop  offset="0" style="stop-color:#FFBFE9"/>
								<stop  offset="1" style="stop-color:#DFAAFF"/>
							</linearGradient>
							<path class="st29" d="M2271.7,2495.1l-5.1-0.9c65.6-372.5,311.6-711.4,642.1-884.4l2.4,4.6
								C2582,1786.6,2337,2124.1,2271.7,2495.1z"/>
							
								<linearGradient id="SVGID_34_" gradientUnits="userSpaceOnUse" x1="2184.6394" y1="2161.9775" x2="2324.8403" y2="2161.9775">
								<stop  offset="0" style="stop-color:#FFBFE9"/>
								<stop  offset="1" style="stop-color:#DFAAFF"/>
							</linearGradient>
							<path class="st30" d="M2324.8,2295l-5.2,0.1c-3.6-148.6-133.7-261.3-135-262.4l3.4-3.9
								C2189.3,2029.9,2321.1,2144.1,2324.8,2295z"/>
							
								<linearGradient id="SVGID_35_" gradientUnits="userSpaceOnUse" x1="2281.0122" y1="2345.6643" x2="2625.7844" y2="2345.6643">
								<stop  offset="0" style="stop-color:#FFBFE9"/>
								<stop  offset="1" style="stop-color:#DFAAFF"/>
							</linearGradient>
							<path class="st31" d="M2285.6,2426.9l-4.6-2.3c68.3-134.4,341.6-159.8,344.3-160.1l0.5,5.2
								C2623.1,2269.8,2352.6,2295.1,2285.6,2426.9z"/>
							
								<linearGradient id="SVGID_36_" gradientUnits="userSpaceOnUse" x1="2464.2261" y1="1826.8398" x2="2515.1621" y2="1826.8398">
								<stop  offset="0" style="stop-color:#FFBFE9"/>
								<stop  offset="1" style="stop-color:#DFAAFF"/>
							</linearGradient>
							<path class="st32" d="M2500.6,1968.6l-4.8-1.9c44.9-110.8-30.8-277.8-31.6-279.5l4.7-2.2
								C2469.7,1686.8,2546.3,1855.8,2500.6,1968.6z"/>
							
								<linearGradient id="SVGID_37_" gradientUnits="userSpaceOnUse" x1="2658.5093" y1="1764.2009" x2="2955.2661" y2="1764.2009">
								<stop  offset="0" style="stop-color:#FFBFE9"/>
								<stop  offset="1" style="stop-color:#DFAAFF"/>
							</linearGradient>
							<path class="st33" d="M2661.3,1790.1l-2.8-4.3c114.3-74.2,294.9-39.2,296.8-38.8l-1,5.1
								C2952.5,1751.6,2773.8,1717.1,2661.3,1790.1z"/>
						</g>
					</g>
				</g>
			</g>
			<g>
				<g>
					<g>
						
							<linearGradient id="SVGID_38_" gradientUnits="userSpaceOnUse" x1="2780.2361" y1="2617.7893" x2="1577.618" y2="1591.9006" gradientTransform="matrix(1 2.536535e-003 -2.536535e-003 1 4.4142 -4.8002)">
							<stop  offset="0" style="stop-color:#444B8C"/>
							<stop  offset="0.9964" style="stop-color:#26264F"/>
						</linearGradient>
						<path class="st34" d="M2490.1,482.6l-6.4,2513.2c-0.1,37.6-32.2,45.6-68.6,46.7l-1248.1,61.4l-18.9,0.6
							c-38.8,1.2-70.5-29.7-70.4-68.6l6.6-2600.4c0.1-38.9,32-69.6,70.8-68.2l25.7,0.9L2433,468.6
							C2469.4,469.9,2490.2,445,2490.1,482.6z"/>
						<linearGradient id="SVGID_39_" gradientUnits="userSpaceOnUse" x1="1766.819" y1="3127.6621" x2="1875.6659" y2="388.6464">
							<stop  offset="0" style="stop-color:#9694FF"/>
							<stop  offset="0.9817" style="stop-color:#FFAAE7"/>
						</linearGradient>
						<path class="st35" d="M2529,482.7l-6.4,2513.2c-0.1,37.6-29.9,69.2-66.3,70.3L1187,3104.4c-38.8,1.2-70.5-29.7-70.4-68.6
							l6.6-2600.4c0.1-38.9,32-69.6,70.8-68.2L2463,412C2499.5,413.3,2529.1,445.1,2529,482.7z"/>
						
							<linearGradient id="SVGID_40_" gradientUnits="userSpaceOnUse" x1="1163.8055" y1="1784.6974" x2="2484.7449" y2="1784.6974" gradientTransform="matrix(1 2.536535e-003 -2.536535e-003 1 4.4142 -4.8002)">
							<stop  offset="0" style="stop-color:#FFFFFF"/>
							<stop  offset="1" style="stop-color:#FFFFFF"/>
						</linearGradient>
						<path class="st36" d="M2487.6,620.7l-5.9,2328.2c-0.1,35.1-28,64.6-62,65.6l-1193.5,34.5c-36.1,1-65.6-27.7-65.5-64l6.1-2404
							c0.1-36.2,29.8-64.9,65.9-63.8L2425.9,555C2460,556,2487.7,585.6,2487.6,620.7z"/>
					</g>
					<path class="st37" d="M1861.7,467.9c0,13.2-10.6,23.6-23.6,23.2c-13-0.4-23.6-11.5-23.5-24.8c0-13.3,10.6-23.6,23.7-23.2
						C1851.2,443.6,1861.7,454.7,1861.7,467.9z"/>
				</g>
				<g>
					<path class="st38" d="M2298.8,2034.1l-953.2,10.4c-12.1,0.1-21.8-9.5-21.8-21.6l0.5-208.7c0-12.1,9.8-21.9,21.9-21.9l953.1-4
						c11.4,0,20.7,9.4,20.7,21.2l-0.5,203.2C2319.5,2024.3,2310.3,2034,2298.8,2034.1z"/>
					<path class="st38" d="M2295.7,2418.5l-948.7,20.2c-13.3,0.3-24.1-10.3-24-23.6l0.5-204.1c0-13.3,10.9-24.3,24.2-24.5
						l948.7-13.9c12.6-0.2,22.9,10.2,22.8,23.2l-0.5,198.8C2318.6,2407.5,2308.3,2418.2,2295.7,2418.5z"/>
					<path class="st0" d="M2204.8,1164.3c-0.5,209.5-167.6,378.9-375.2,378.4c-210-0.5-381.5-174.2-380.9-387.9
						c0.5-213.8,172.9-383.1,382.9-378.3C2039.1,781.2,2205.3,954.8,2204.8,1164.3z"/>
					
						<linearGradient id="SVGID_41_" gradientUnits="userSpaceOnUse" x1="1578.8601" y1="533.5443" x2="2736.5063" y2="2900.6714" gradientTransform="matrix(1 2.536535e-003 -2.536535e-003 1 4.4142 -4.8002)">
						<stop  offset="0" style="stop-color:#A294FF"/>
						<stop  offset="0.9964" style="stop-color:#F77FFF"/>
					</linearGradient>
					<path class="st39" d="M1985.1,1046.4c-0.2,86.3-69.3,155.5-154.6,154.5c-85.6-1-155.1-72.3-154.8-159.2
						c0.2-86.9,70-156,155.6-154.4C1916.6,888.9,1985.3,960.1,1985.1,1046.4z"/>
					<linearGradient id="SVGID_42_" gradientUnits="userSpaceOnUse" x1="1742.1796" y1="1267.0598" x2="1883.7777" y2="1558.4667">
						<stop  offset="0" style="stop-color:#9498FF"/>
						<stop  offset="0.9964" style="stop-color:#FF94E7"/>
					</linearGradient>
					<path class="st40" d="M1829.5,1542.7c91.8,0.2,175.6-32.8,240.5-87.6c-21.8-114.2-120.4-201.2-239.8-202.4
						c-120.1-1.2-221.1,84.8-244,200.1C1652.5,1508.8,1737.3,1542.5,1829.5,1542.7z"/>
					<linearGradient id="SVGID_43_" gradientUnits="userSpaceOnUse" x1="1407.4059" y1="1914.8088" x2="1991.0576" y2="1914.8088">
						<stop  offset="9.803922e-003" style="stop-color:#ADAAFF"/>
						<stop  offset="1" style="stop-color:#FF94C4"/>
					</linearGradient>
					<path class="st41" d="M1959.7,1944.4l-520.2,4.4c-17.7,0.1-32.2-14.3-32.1-32l0,0c0-17.8,14.6-32.4,32.3-32.5l520.2-3.5
						c17.2-0.1,31.2,14.1,31.2,31.6l0,0C1991,1929.9,1976.9,1944.3,1959.7,1944.4z"/>
					<g>
						
							<linearGradient id="SVGID_44_" gradientUnits="userSpaceOnUse" x1="768.9266" y1="929.6409" x2="1926.5748" y2="3296.7717" gradientTransform="matrix(1 2.536535e-003 -2.536535e-003 1 4.4142 -4.8002)">
							<stop  offset="0" style="stop-color:#AA80F9"/>
							<stop  offset="0.9964" style="stop-color:#6165D7"/>
						</linearGradient>
						<path class="st42" d="M1484.2,2309.6c-0.1,22.7-18.4,41.4-41.1,41.9c-22.7,0.4-41-17.7-40.9-40.4
							c0.1-22.7,18.5-41.5,41.1-41.9C1466,2268.8,1484.3,2286.9,1484.2,2309.6z"/>
						
							<linearGradient id="SVGID_45_" gradientUnits="userSpaceOnUse" x1="894.2103" y1="868.3748" x2="2051.8572" y2="3235.5032" gradientTransform="matrix(1 2.536535e-003 -2.536535e-003 1 4.4142 -4.8002)">
							<stop  offset="0" style="stop-color:#AA80F9"/>
							<stop  offset="0.9964" style="stop-color:#6165D7"/>
						</linearGradient>
						<path class="st43" d="M1637.6,2306.8c-0.1,22.6-18.3,41.3-40.7,41.7c-22.5,0.4-40.7-17.6-40.6-40.2
							c0.1-22.6,18.3-41.3,40.8-41.7C1619.6,2266.2,1637.7,2284.2,1637.6,2306.8z"/>
						
							<linearGradient id="SVGID_46_" gradientUnits="userSpaceOnUse" x1="1018.4783" y1="807.5994" x2="2176.1245" y2="3174.7266" gradientTransform="matrix(1 2.536535e-003 -2.536535e-003 1 4.4142 -4.8002)">
							<stop  offset="0" style="stop-color:#AA80F9"/>
							<stop  offset="0.9964" style="stop-color:#6165D7"/>
						</linearGradient>
						<path class="st44" d="M1789.8,2304.1c-0.1,22.5-18.1,41.1-40.4,41.5c-22.3,0.4-40.3-17.5-40.3-40.1
							c0.1-22.6,18.2-41.1,40.5-41.5C1771.8,2263.6,1789.8,2281.6,1789.8,2304.1z"/>
						
							<linearGradient id="SVGID_47_" gradientUnits="userSpaceOnUse" x1="1141.7485" y1="747.3204" x2="2299.3962" y2="3114.4504" gradientTransform="matrix(1 2.536535e-003 -2.536535e-003 1 4.4142 -4.8002)">
							<stop  offset="0" style="stop-color:#AA80F9"/>
							<stop  offset="0.9964" style="stop-color:#6165D7"/>
						</linearGradient>
						<path class="st45" d="M1940.7,2301.4c-0.1,22.4-18,40.9-40.1,41.3c-22.1,0.4-40-17.4-40-39.9c0.1-22.5,18-41,40.2-41.3
							C1922.9,2261.1,1940.7,2279,1940.7,2301.4z"/>
						
							<linearGradient id="SVGID_48_" gradientUnits="userSpaceOnUse" x1="1264.025" y1="687.5155" x2="2421.6731" y2="3054.6462" gradientTransform="matrix(1 2.536535e-003 -2.536535e-003 1 4.4142 -4.8002)">
							<stop  offset="0" style="stop-color:#AA80F9"/>
							<stop  offset="0.9964" style="stop-color:#6165D7"/>
						</linearGradient>
						<path class="st46" d="M2090.4,2298.7c-0.1,22.3-17.8,40.8-39.8,41.2c-21.9,0.4-39.7-17.4-39.6-39.8s17.9-40.8,39.8-41.2
							C2072.8,2258.6,2090.5,2276.4,2090.4,2298.7z"/>
					</g>
					<path class="st0" d="M1829.5,1552c-104.1-0.3-202.1-41.7-275.9-116.8c-73.9-75.1-114.5-174.7-114.2-280.5
						c0.3-106.6,41.9-205.8,117.3-279.3c74.1-72.2,171.7-110.7,275.1-108.3c102.8,2.3,199.1,45,271.2,120
						c72,74.9,111.4,173.3,111.2,277.2c-0.3,103.9-40.3,201.4-112.6,274.5C2028.9,1512.1,1932.3,1552.3,1829.5,1552
						C1829.5,1552,1829.5,1552,1829.5,1552z M1823.7,785.7c-95.5-0.2-185.5,36.2-254.1,103.1c-71.8,70-111.4,164.4-111.7,266
						c-0.3,100.8,38.4,195.8,108.9,267.4c70.3,71.5,163.6,111,262.7,111.2c0,0,0,0,0.1,0c201.2,0.5,365.4-165.1,365.9-369.1
						c0.5-204.1-162.9-373.9-364.2-378.5C1828.7,785.7,1826.2,785.7,1823.7,785.7z"/>
				</g>
				
					<linearGradient id="SVGID_49_" gradientUnits="userSpaceOnUse" x1="1766.8387" y1="1736.131" x2="2525.8215" y2="1736.131" gradientTransform="matrix(1 2.536535e-003 -2.536535e-003 1 4.4142 -4.8002)">
					<stop  offset="0" style="stop-color:#FE8B8E"/>
					<stop  offset="0" style="stop-color:#FF9085"/>
					<stop  offset="1" style="stop-color:#FB6FBB"/>
				</linearGradient>
				<path class="st47" d="M2529,481.2c0.1-37.3-29.4-67.9-66.7-69.3l-692.1-24.4c256,272.7,313.2,501.1,319.4,657.1
					c17.7,445.3-366.4,638.3-296.3,1125.4c19.2,133.5,62.2,217.5,78.5,448.1c13.9,196.6-1.6,359.3-16.8,466.1l601.3-18.1
					c36.4-1.1,66.2-32.7,66.3-70.3L2529,481.2z"/>
			</g>
			
				<linearGradient id="SVGID_50_" gradientUnits="userSpaceOnUse" x1="1111.0876" y1="2062.7275" x2="1757.119" y2="2086.7595" gradientTransform="matrix(1 2.536535e-003 -2.536535e-003 1 4.4142 -4.8002)">
				<stop  offset="0" style="stop-color:#FF9085"/>
				<stop  offset="1" style="stop-color:#FB6FBB"/>
			</linearGradient>
			<path class="st48" d="M1501.1,1732.9c7.8-214.4-65.4-304.3-84.8-326.3c-13.7-15.5-26.4-26.6-121.3-105.3
				c-70.5-58.5-129.3-107-171-141.4c-2.4,600.8-4.7,1201.6-7.1,1802.4c29.1-230.5,84.2-404.3,126.1-515.3
				C1360.3,2136.5,1491,2008.1,1501.1,1732.9z"/>
		</g>
	</g>
	<text transform="matrix(1 0 0 1 1648 1640)" class="st2 st3">a</text>
	<text transform="matrix(0.919 0 0 1 1556.5905 1707.0276)" class="st49 st50 st51"> Etranger</text>
</g>
</svg>
