<?xml version="1.0" encoding="utf-8"?>
<!-- Generator: Adobe Illustrator 19.0.0, SVG Export Plug-In . SVG Version: 6.00 Build 0)  -->
<svg version="1.1" id="Calque_1" xmlns="http://www.w3.org/2000/svg" xmlns:xlink="http://www.w3.org/1999/xlink" x="0px" y="0px"
	 viewBox="0 0 595.3 841.9" style="enable-background:new 0 0 595.3 841.9;" xml:space="preserve">
<style type="text/css">
	.st0{fill:#9999CB;}
</style>
<g>
	<path id="XMLID_2_" class="st0" d="M233.7,366.7l31,35.2c1.8,2,4.3,3.1,7,3.1c2.7,0,5.2-1.1,7-3.1l30.4-34.5
		c0.3-0.3,0.5-0.5,0.9-0.7c-1.3-0.6-2.7-0.9-4.2-0.9h-68.1c-1.4,0-2.8,0.3-4,0.8C233.6,366.6,233.7,366.7,233.7,366.7z"/>
	<path id="XMLID_1_" class="st0" d="M314.6,370.7c-0.1,0.4-0.3,0.7-0.6,1l-30.5,34.5c-3,3.4-7.4,5.4-11.9,5.4c-4.6,0-8.9-2-11.9-5.4
		l-31-35.2c-0.1-0.1-0.1-0.2-0.2-0.2c-1,1.6-1.5,3.4-1.5,5.4v47.6c0,5.8,4.7,10.5,10.5,10.5h68.1c5.8,0,10.5-4.7,10.5-10.5v-47.6
		C316.2,374.2,315.6,372.3,314.6,370.7z"/>
</g>
</svg>
