<?xml version="1.0" encoding="utf-8"?>
<!-- Generator: Adobe Illustrator 19.0.0, SVG Export Plug-In . SVG Version: 6.00 Build 0)  -->
<svg version="1.1" id="Calque_1" xmlns="http://www.w3.org/2000/svg" xmlns:xlink="http://www.w3.org/1999/xlink" x="0px" y="0px"
	 viewBox="0 0 595.3 841.9" style="enable-background:new 0 0 595.3 841.9;" xml:space="preserve">
<style type="text/css">
	.st0{fill:#9999CB;}
	.st1{fill-rule:evenodd;clip-rule:evenodd;fill:#9999CB;}
</style>
<g>
	<path class="st0" d="M218.5,454.8l8.2-30.5c-4.6-8.3-7.1-17.7-7.1-27.2c0-31,25.2-56.3,56.3-56.3c31,0,56.3,25.2,56.3,56.3
		c0,31-25.2,56.3-56.3,56.3c-9.3,0-18.5-2.4-26.7-6.8L218.5,454.8z M250.7,435.2l1.9,1.2c7.1,4.2,15.1,6.5,23.3,6.5
		c25.2,0,45.6-20.5,45.6-45.6c0-25.2-20.5-45.6-45.6-45.6c-25.2,0-45.6,20.5-45.6,45.6c0,8.3,2.3,16.5,6.7,23.7l1.2,1.9l-4.6,17
		L250.7,435.2z"/>
	<path id="XMLID_1_" class="st1" d="M296.8,405c-2.3-1.4-5.3-2.9-8.1-1.8c-2.1,0.9-3.4,4.1-4.8,5.8c-0.7,0.9-1.5,1-2.6,0.6
		c-7.9-3.1-13.9-8.4-18.2-15.6c-0.7-1.1-0.6-2,0.3-3c1.3-1.5,3-3.3,3.3-5.4c0.4-2.1-0.6-4.5-1.5-6.4c-1.1-2.4-2.3-5.7-4.7-7.1
		c-2.2-1.2-5-0.5-7,1c-3.3,2.7-5,7-4.9,11.2c0,1.2,0.2,2.4,0.4,3.6c0.7,2.8,2,5.4,3.4,7.9c1.1,1.9,2.3,3.7,3.6,5.4
		c4.2,5.7,9.4,10.7,15.5,14.4c3,1.9,6.3,3.5,9.7,4.6c3.8,1.3,7.2,2.6,11.2,1.8c4.3-0.8,8.5-3.5,10.2-7.6c0.5-1.2,0.8-2.6,0.5-3.9
		C302.6,407.9,299,406.3,296.8,405z"/>
</g>
</svg>
