<?xml version="1.0" encoding="utf-8"?>
<!-- Generator: Adobe Illustrator 19.0.0, SVG Export Plug-In . SVG Version: 6.00 Build 0)  -->
<svg version="1.1" xmlns="http://www.w3.org/2000/svg" xmlns:xlink="http://www.w3.org/1999/xlink" x="0px" y="0px"
	 viewBox="0 0 750 500" style="enable-background:new 0 0 750 500;" xml:space="preserve">
<style type="text/css">
	.st0{clip-path:url(#SVGID_2_);}
	.st1{fill:url(#XMLID_32_);}
	.st2{fill:url(#XMLID_66_);}
	.st3{fill:url(#XMLID_67_);}
	.st4{fill:url(#XMLID_68_);}
	.st5{fill:url(#XMLID_69_);}
	.st6{fill:url(#XMLID_70_);}
	.st7{fill:url(#SVGID_3_);}
	.st8{fill:url(#SVGID_4_);}
	.st9{fill:url(#XMLID_71_);}
	.st10{fill:#FFFFFF;}
</style>
<g id="BACKGROUND">
</g>
<g id="OBJECTS">
	<g id="XMLID_1_">
		<defs>
			<rect id="SVGID_1_" width="750" height="500"/>
		</defs>
		<clipPath id="SVGID_2_">
			<use xlink:href="#SVGID_1_"  style="overflow:visible;"/>
		</clipPath>
		<g id="XMLID_2_" class="st0">
			<g id="XMLID_3_">
				<linearGradient id="XMLID_32_" gradientUnits="userSpaceOnUse" x1="335.8119" y1="-125.4672" x2="-127.0702" y2="329.7759">
					<stop  offset="0" style="stop-color:#DA8BB6"/>
					<stop  offset="0.8088" style="stop-color:#716AFF"/>
				</linearGradient>
				<path id="XMLID_5_" class="st1" d="M-77.6,310.9c71.9,26.4,150.2,40.9,225.6,26.7c75.3-14.1,147.1-60.1,179.4-129.6
					c13.1-28.3,19.4-59.2,30.5-88.3C369,90.7,386.4,62,414,47.7c25.8-13.3,56.8-12.4,83.4-24c33.8-14.7,57.2-50.5,57.1-87.3
					c-0.5,0-0.5,0-1,0H-76.1c0,2.5-2.7,3.6-2.7,6.1L-77.6,310.9z"/>
				<linearGradient id="XMLID_66_" gradientUnits="userSpaceOnUse" x1="-22.3481" y1="401.4005" x2="358.2712" y2="401.4005">
					<stop  offset="0" style="stop-color:#F44CE1"/>
					<stop  offset="0.9877" style="stop-color:#887FFF"/>
				</linearGradient>
				<path id="XMLID_6_" class="st2" d="M-22.3,308.9c13.2-27.4,44.8-44.7,75-41c30.2,3.7,56.7,28.2,62.8,58
					c2.7,13.4,1.7,27.2,1.8,40.9c0.1,13.7,1.5,27.9,8.6,39.6c7.1,11.7,21.1,20.2,34.4,17c12.3-3,20.5-14.6,24.8-26.5
					c4.3-11.9,5.7-24.6,10.4-36.3c9.3-22.9,31.8-39.8,56.4-42.9c24.6-3.1,50.2,7.4,66.2,26.3c15.9,18.9,21.8,45.7,16.1,69.7
					c-3.3,13.8-10.3,27.3-8.9,41.5c1.4,14.6,11.4,26.7,19.9,38.6c8.5,12,16.2,26.6,12.2,40.7c-0.2,0,0.7,0.9,0.6,0.9H-18.4
					C-23.9,461.4-5.9,381.2-22.3,308.9z"/>
				<linearGradient id="XMLID_67_" gradientUnits="userSpaceOnUse" x1="-31.6999" y1="389.3537" x2="315.7812" y2="389.3537">
					<stop  offset="0" style="stop-color:#6A6FFF"/>
					<stop  offset="1" style="stop-color:#F16AFF"/>
				</linearGradient>
				<path id="XMLID_7_" class="st3" d="M-26.2,241.7c25.3-4.8,52.9,5.2,69.1,25.2c16.2,20,20.4,49.1,10.5,72.8
					c-10.2,24.4-33.4,42.3-40.8,67.7c-6.3,21.5,0.6,45.9,15.8,62.4c15.2,16.5,37.9,25.2,60.4,25.1c22.4-0.1,44.4-8.5,62.4-21.9
					c23.9-17.6,42.1-44,69.9-54.4c30.5-11.4,68.2,1.7,85.1,29.5c16.9,27.8,11,67.3-13.2,89.1l-324.6,0.8
					C-30.6,439.7-27.3,340.2-26.2,241.7z"/>
				<linearGradient id="XMLID_68_" gradientUnits="userSpaceOnUse" x1="366.5678" y1="65.4217" x2="787.8618" y2="65.4217">
					<stop  offset="0" style="stop-color:#C665A2"/>
					<stop  offset="0.9877" style="stop-color:#796AFF"/>
				</linearGradient>
				<path id="XMLID_8_" class="st4" d="M366.6-37.6C366.9-24,377.7-12.5,390-6.7c12.4,5.7,26.2,6.9,39.7,8.8
					c13.5,1.9,27.4,4.7,38.2,13.1c17.2,13.3,22.1,36.9,23.6,58.5c1.5,21.7,1.1,44.5,11.5,63.5c9.3,17,27.2,29.1,46.5,31.4
					c19.3,2.3,39.5-5.2,52.7-19.4c9.8-10.5,15.6-24,22.5-36.6s15.8-25,28.9-30.9c21.6-9.6,46.4,1.6,67,13.2
					c20.6,11.6,44,24.4,66.7,17.6l0.4-148.2c-1.9,0-3.8-2.3-5.7-2.3L366.6-37.6z"/>
				<linearGradient id="XMLID_69_" gradientUnits="userSpaceOnUse" x1="323.6502" y1="97.5919" x2="797.826" y2="97.5919">
					<stop  offset="0" style="stop-color:#CB6699"/>
					<stop  offset="0.549" style="stop-color:#6872B3"/>
					<stop  offset="0.9363" style="stop-color:#CB6699"/>
				</linearGradient>
				<path id="XMLID_9_" class="st5" d="M327.6-31.1c-12.8,36,6.6,80.2,41.7,95.1c23,9.8,49.3,7.6,73.7,2.2
					c24.4-5.4,48.2-13.9,73-16.3c24.8-2.5,51.9,1.9,70.1,19.1c33,31,23.1,87.1,47.2,125.4c17.2,27.5,51.4,42.2,83.7,39.2
					c32.3-3,62-22.3,80.8-48.7l-1.7-223.8l-460.5,0.6C333.2-37.1,328.5-33.7,327.6-31.1z"/>
				<linearGradient id="XMLID_70_" gradientUnits="userSpaceOnUse" x1="359.3824" y1="423.285" x2="790.9993" y2="423.285">
					<stop  offset="0" style="stop-color:#FF6AAC"/>
					<stop  offset="0.999" style="stop-color:#7D85BF"/>
				</linearGradient>
				<path id="XMLID_10_" class="st6" d="M381.5,534.9c-17.3-8.6-26.4-30.8-20.1-49c6.2-18.2,27-30.2,45.9-26.4
					c8.4,1.7,16,6,24.2,8.3c8.2,2.3,18.1,2.2,24.1-3.8c7-6.9,6.2-18.1,7.9-27.8c3.4-19.4,20.2-35.7,39.8-38.5
					c19.5-2.8,40.2,8,49.1,25.6c6.5,13,6.7,28.1,10.1,42.3c3.4,14.1,12.2,29,26.6,31.4c16.2,2.7,30.6-12.3,34.8-28.2
					c4.2-15.8,1.5-32.6,1.9-48.9c1-39,21.2-77,53-99.6c31.8-22.6,74.3-29.3,111.5-17.5l0.7,247.1c-8,0-14.4-1-22.4-1H391
					C389.1,544.7,383.5,538.9,381.5,534.9z"/>
				<linearGradient id="SVGID_3_" gradientUnits="userSpaceOnUse" x1="131.7141" y1="227.5142" x2="131.7141" y2="-20.4435">
					<stop  offset="0" style="stop-color:#FF4B9A"/>
					<stop  offset="0.999" style="stop-color:#797BB8"/>
				</linearGradient>
				<path class="st7" d="M-16.2,225.6c18.9,4.7,39.8,0.9,55.9-10.2s27.2-29.1,29.7-48.5c2.4-18.7-2.8-37.4-4.1-56.2
					C64,92,68,70.7,83.5,60c16.4-11.3,39.1-6.4,56.6,3.1c17.5,9.4,33.1,23,52.1,29c28.9,9.1,63.2-2.5,80.5-27.5
					c17.3-24.9,16.3-61.1-2.3-85l-285.7,0.8C-23.7,62.8-23.4,143.1-16.2,225.6z"/>
				
					<linearGradient id="SVGID_4_" gradientUnits="userSpaceOnUse" x1="710.2114" y1="-31.1849" x2="881.787" y2="-31.1849" gradientTransform="matrix(-1 0 0 -1 1485.3912 -31.1849)">
					<stop  offset="0" style="stop-color:#FF4B9A"/>
					<stop  offset="0.999" style="stop-color:#FFEC7E"/>
				</linearGradient>
				<path class="st8" d="M763.6,70.2C753.2,57.8,735.3,55,719,54.7c-16.2-0.3-33.3,1.1-47.9-6c-12.5-6-22-18-24.8-31.6
					c-2-9.6-0.9-19.6-2.4-29.3c-3.8-23.7-22.5-41.8-40.2-57.9c54.6,5,111.7,6.6,166.6,6C780.5-20.3,773.2,26.1,763.6,70.2z"/>
				
					<linearGradient id="XMLID_71_" gradientUnits="userSpaceOnUse" x1="1224.135" y1="-247.2922" x2="1395.7106" y2="-247.2922" gradientTransform="matrix(0.9963 -8.598796e-002 8.598796e-002 0.9963 -1218.4788 812.5836)">
					<stop  offset="0" style="stop-color:#FF4B9A"/>
					<stop  offset="0.999" style="stop-color:#FFEC7E"/>
				</linearGradient>
				<path id="XMLID_65_" class="st9" d="M-14.7,390.1c11.5,11.4,29.6,12.7,45.8,11.6c16.2-1.1,33.1-3.9,48.3,1.8
					c13,4.9,23.4,16.1,27.5,29.4c2.8,9.4,2.6,19.5,5,29c5.8,23.3,26,39.7,45.1,54.3c-54.8-0.3-111.9,3.1-166.5,8.4
					C-23.7,481.7-20.4,434.7-14.7,390.1z"/>
			</g>
			<g id="XMLID_11_">
				<g id="XMLID_12_">
					
						<rect id="XMLID_13_" x="401.9" y="265" transform="matrix(0.7071 0.7071 -0.7071 0.7071 334.5482 -194.7934)" class="st10" width="1" height="82.9"/>
				</g>
				<g id="XMLID_14_">
					
						<rect id="XMLID_15_" x="712.2" y="-32.1" transform="matrix(0.7072 0.7071 -0.7071 0.7072 215.3103 -501.1638)" class="st10" width="1" height="82.9"/>
				</g>
				<g id="XMLID_16_">
					
						<rect id="XMLID_17_" x="138.4" y="294.7" transform="matrix(0.7071 0.7071 -0.7071 0.7071 278.3536 0.1957)" class="st10" width="1" height="82.9"/>
				</g>
				<g id="XMLID_18_">
					
						<rect id="XMLID_19_" x="143.9" y="98.3" transform="matrix(0.7071 0.7071 -0.7071 0.7071 133.9088 -64.1608)" class="st10" width="1" height="62.6"/>
				</g>
				<g id="XMLID_20_">
					
						<rect id="XMLID_21_" x="427.7" y="-35.1" transform="matrix(0.7071 0.7071 -0.7071 0.7071 137.0978 -297.9253)" class="st10" width="1" height="103.2"/>
				</g>
				<g id="XMLID_22_">
					
						<rect id="XMLID_23_" x="343.2" y="448.4" transform="matrix(0.7071 0.7072 -0.7072 0.7071 454.2674 -96.5887)" class="st10" width="1" height="103.2"/>
				</g>
				<g id="XMLID_24_">
					
						<rect id="XMLID_25_" x="639.4" y="422.4" transform="matrix(0.7072 0.7071 -0.7071 0.7072 522.5558 -313.6509)" class="st10" width="1" height="103.2"/>
				</g>
				<g id="XMLID_26_">
					
						<rect id="XMLID_27_" x="666.7" y="161.6" transform="matrix(0.7072 0.7071 -0.7071 0.7072 346.086 -409.297)" class="st10" width="1" height="103.2"/>
				</g>
			</g>
			<g id="XMLID_28_">
				<g id="XMLID_29_">
					<path class="st10" d="M667.6,370.2l35.6,24.9c-2.9-1-5.8-2.2-8.6-3.6L673.9,377C671.6,374.9,669.5,372.6,667.6,370.2z"/>
					<path class="st10" d="M656.7,352.7l66.6,46.5c-1.4-0.1-2.7-0.2-4.1-0.4l-60.7-42.4C657.9,355.2,657.3,353.9,656.7,352.7z"/>
					<path class="st10" d="M652.1,339.5l85.2,59.5c-1,0.1-2.1,0.2-3.1,0.3L653,342.5C652.7,341.5,652.4,340.5,652.1,339.5z"/>
					<path class="st10" d="M650.1,328.1l98.5,68.9c-0.9,0.2-1.7,0.4-2.6,0.6l-95.6-66.8C650.3,329.9,650.2,329,650.1,328.1z"/>
					<path class="st10" d="M649.7,317.9l108.7,75.9c-0.7,0.3-1.5,0.6-2.3,0.9l-106.5-74.4C649.7,319.5,649.7,318.7,649.7,317.9z"/>
					<path class="st10" d="M650.5,308.5L767,389.9c-0.7,0.4-1.3,0.7-2,1l-114.7-80.2C650.3,310,650.4,309.3,650.5,308.5z"/>
					<path class="st10" d="M652.3,299.8l122.3,85.5c-0.6,0.4-1.2,0.8-1.8,1.2l-121-84.6C651.9,301.2,652.1,300.5,652.3,299.8z"/>
					<path class="st10" d="M654.9,291.7L781.3,380c-0.5,0.5-1.1,0.9-1.6,1.3l-125.5-87.7C654.4,293,654.6,292.3,654.9,291.7z"/>
					<path class="st10" d="M658.2,284.1l129,90.1c-0.4,0.5-0.9,1-1.4,1.5l-128.5-89.8C657.6,285.3,657.9,284.7,658.2,284.1z"/>
					<path class="st10" d="M662.3,277l130.2,91c-0.4,0.5-0.8,1.1-1.2,1.6l-130.1-90.9C661.6,278.1,661.9,277.5,662.3,277z"/>
					<path class="st10" d="M667.1,270.3l130.1,90.9c-0.3,0.6-0.7,1.1-1.1,1.7l-130.2-91C666.2,271.4,666.7,270.8,667.1,270.3z"/>
					<path class="st10" d="M672.5,264.2L801,354c-0.3,0.6-0.6,1.2-0.9,1.8l-129-90.1C671.6,265.1,672,264.7,672.5,264.2z"/>
					<path class="st10" d="M678.7,258.5l125.5,87.7c-0.2,0.6-0.5,1.3-0.7,1.9l-126.4-88.3C677.6,259.4,678.1,259,678.7,258.5z"/>
					<path class="st10" d="M685.6,253.4l121,84.6c-0.2,0.7-0.3,1.4-0.5,2.1l-122.3-85.5C684.4,254.2,685,253.8,685.6,253.4z"/>
					<path class="st10" d="M693.4,248.9l114.7,80.2c-0.1,0.7-0.2,1.5-0.3,2.2L691.4,250C692.1,249.6,692.7,249.3,693.4,248.9z"/>
					<path class="st10" d="M702.2,245.1l106.4,74.4c0,0.8,0,1.6,0,2.4L700,246C700.7,245.7,701.5,245.4,702.2,245.1z"/>
					<path class="st10" d="M712.3,242.2l95.6,66.8c0.1,0.9,0.2,1.8,0.3,2.7l-98.5-68.9C710.6,242.6,711.5,242.4,712.3,242.2z"/>
					<path class="st10" d="M724.2,240.6l81.2,56.7c0.3,1,0.6,2,0.8,3l-85.1-59.5C722.1,240.7,723.2,240.7,724.2,240.6z"/>
					<path class="st10" d="M739.1,241l60.7,42.4c0.6,1.2,1.2,2.4,1.8,3.7L735,240.6C736.4,240.7,737.8,240.9,739.1,241z"/>
					<path class="st10" d="M763.9,248.4l20.6,14.4c2.3,2.2,4.4,4.5,6.3,6.9l-35.5-24.8C758.2,245.8,761.1,247,763.9,248.4z"/>
				</g>
				<g id="XMLID_30_">
					<path class="st10" d="M2.9,347.9l-33.4,23.5c1.8-2.3,3.8-4.4,5.9-6.5l19.4-13.6C-2.5,350,0.2,348.8,2.9,347.9z"/>
					<path class="st10" d="M21.9,343.9l-62.5,44c0.5-1.2,1.1-2.3,1.7-3.5l57.1-40.1C19.4,344.1,20.6,344,21.9,343.9z"/>
					<path class="st10" d="M35.1,344l-80,56.3c0.2-1,0.5-1.9,0.8-2.8l76.3-53.6C33.1,343.9,34.1,343.9,35.1,344z"/>
					<path class="st10" d="M45.8,345.9L-46.8,411c0.1-0.8,0.2-1.7,0.3-2.5l89.8-63.2C44.1,345.5,44.9,345.7,45.8,345.9z"/>
					<path class="st10" d="M54.9,348.8l-102.1,71.8c0-0.8,0-1.5,0-2.3l100-70.3C53.5,348.3,54.3,348.6,54.9,348.8z"/>
					<path class="st10" d="M63,352.5l-109.4,76.9c-0.1-0.7-0.2-1.4-0.3-2.1l107.8-75.8C61.8,351.9,62.4,352.2,63,352.5z"/>
					<path class="st10" d="M70.2,356.9l-114.9,80.8c-0.2-0.7-0.3-1.3-0.5-2l113.7-79.9C69,356.1,69.6,356.5,70.2,356.9z"/>
					<path class="st10" d="M76.5,361.8l-118.7,83.5c-0.2-0.6-0.5-1.2-0.7-1.8L75,360.6C75.5,361,76,361.4,76.5,361.8z"/>
					<path class="st10" d="M82.2,367.2L-39,452.5c-0.3-0.6-0.6-1.1-0.9-1.7l120.7-84.9C81.3,366.3,81.7,366.8,82.2,367.2z"/>
					<path class="st10" d="M87.1,373.1l-122.3,86c-0.4-0.5-0.7-1.1-1-1.6L86,371.6C86.4,372.1,86.8,372.6,87.1,373.1z"/>
					<path class="st10" d="M91.5,379.5l-122.2,85.9c-0.4-0.5-0.8-1-1.2-1.5l122.3-86C90.8,378.4,91.2,378.9,91.5,379.5z"/>
					<path class="st10" d="M95.2,386.3l-120.7,84.9c-0.4-0.4-0.9-0.9-1.3-1.4l121.2-85.2C94.6,385.1,94.9,385.7,95.2,386.3z"/>
					<path class="st10" d="M98.2,393.5l-117.9,82.9c-0.5-0.4-1-0.8-1.5-1.3l118.7-83.5C97.8,392.3,98,392.9,98.2,393.5z"/>
					<path class="st10" d="M100.5,401.3l-113.7,79.9c-0.6-0.4-1.1-0.7-1.7-1.1L100,399.3C100.2,400,100.3,400.6,100.5,401.3z"/>
					<path class="st10" d="M102,409.6L-5.8,485.4c-0.6-0.3-1.3-0.6-1.9-1l109.4-76.9C101.8,408.2,101.9,408.9,102,409.6z"/>
					<path class="st10" d="M102.5,418.7L2.5,489c-0.7-0.3-1.4-0.5-2.1-0.8l102.1-71.8C102.5,417.1,102.5,417.9,102.5,418.7z"/>
					<path class="st10" d="M101.8,428.5L12,491.7c-0.8-0.2-1.6-0.4-2.5-0.6l92.6-65.1C102,426.9,101.9,427.7,101.8,428.5z"/>
					<path class="st10" d="M99.5,439.6l-76.3,53.6c-1-0.1-2-0.1-2.9-0.2l80-56.3C100,437.7,99.7,438.6,99.5,439.6z"/>
					<path class="st10" d="M94.3,452.6l-57.1,40.1c-1.3,0.2-2.5,0.3-3.8,0.4l62.5-44C95.4,450.3,94.9,451.5,94.3,452.6z"/>
					<path class="st10" d="M79.8,472.2l-19.3,13.6c-2.6,1.3-5.4,2.4-8.1,3.4l33.3-23.5C83.9,467.9,81.9,470.1,79.8,472.2z"/>
				</g>
				<g id="XMLID_31_">
					<path class="st10" d="M226.9,9.9l-5.8,43c-0.4-3.1-0.7-6.1-0.8-9.3l3.4-25C224.6,15.7,225.7,12.7,226.9,9.9z"/>
					<path class="st10" d="M237.5-7.8l-10.8,80.5c-0.5-1.3-1-2.5-1.5-3.8L235-4.5C235.8-5.6,236.6-6.7,237.5-7.8z"/>
					<path class="st10" d="M247.1-17.9l-13.9,103c-0.6-0.9-1.1-1.8-1.7-2.7l13.2-98.2C245.5-16.5,246.3-17.2,247.1-17.9z"/>
					<path class="st10" d="M256.3-24.9l-16,119.1c-0.6-0.7-1.2-1.4-1.7-2.1L254-23.4C254.8-23.9,255.5-24.4,256.3-24.9z"/>
					<path class="st10" d="M265.2-29.9l-17.7,131.4c-0.6-0.5-1.2-1.1-1.8-1.6L263-28.9C263.7-29.2,264.5-29.6,265.2-29.9z"/>
					<path class="st10" d="M273.9-33.5l-19,140.8c-0.6-0.4-1.2-0.9-1.8-1.3l18.7-138.7C272.5-33.1,273.2-33.3,273.9-33.5z"/>
					<path class="st10" d="M282.5-36l-19.9,147.8c-0.6-0.3-1.3-0.7-1.9-1l19.7-146.3C281.1-35.7,281.8-35.8,282.5-36z"/>
					<path class="st10" d="M290.9-37.4l-20.6,152.8c-0.6-0.3-1.3-0.5-1.9-0.8l20.4-151.8C289.5-37.2,290.2-37.3,290.9-37.4z"/>
					<path class="st10" d="M299.2-37.9l-21,156c-0.7-0.2-1.3-0.4-1.9-0.6l20.9-155.4C297.8-37.9,298.5-37.9,299.2-37.9z"/>
					<path class="st10" d="M307.4-37.5l-21.2,157.4c-0.7-0.1-1.3-0.2-2-0.4l21.2-157.2C306-37.6,306.7-37.6,307.4-37.5z"/>
					<path class="st10" d="M315.4-36.3l-21.2,157.2c-0.7,0-1.3-0.1-2-0.2l21.2-157.4C314.1-36.6,314.8-36.5,315.4-36.3z"/>
					<path class="st10" d="M323.4-34.3l-20.9,155.4c-0.7,0-1.3,0-2,0l21-156C322.1-34.7,322.7-34.5,323.4-34.3z"/>
					<path class="st10" d="M331.2-31.4l-20.4,151.8c-0.7,0.1-1.4,0.2-2.1,0.2l20.6-152.8C330-32,330.6-31.7,331.2-31.4z"/>
					<path class="st10" d="M338.9-27.6l-19.7,146.3c-0.7,0.2-1.4,0.3-2.1,0.5l19.9-147.8C337.7-28.3,338.3-27.9,338.9-27.6z"/>
					<path class="st10" d="M346.5-22.7L327.8,116c-0.7,0.3-1.4,0.5-2.1,0.8l19-140.8C345.3-23.6,345.9-23.2,346.5-22.7z"/>
					<path class="st10" d="M353.9-16.6l-17.3,128.7c-0.7,0.4-1.4,0.7-2.2,1.1l17.7-131.4C352.7-17.7,353.3-17.2,353.9-16.6z"/>
					<path class="st10" d="M361.1-9l-15.6,115.6c-0.7,0.5-1.5,1-2.2,1.5l16-119.1C360-10.3,360.6-9.6,361.1-9z"/>
					<path class="st10" d="M368,0.8L354.8,99c-0.8,0.7-1.5,1.4-2.3,2.1l13.9-103C366.9-1,367.5-0.1,368,0.8z"/>
					<path class="st10" d="M374.5,14.3l-9.9,73.4c-0.8,1.1-1.6,2.2-2.5,3.3L373,10.5C373.5,11.7,374,13,374.5,14.3z"/>
					<path class="st10" d="M379.3,39.7l-3.3,24.9c-0.9,3-2,5.9-3.2,8.8l5.8-42.9C378.9,33.4,379.2,36.5,379.3,39.7z"/>
				</g>
			</g>
		</g>
	</g>
	<g id="XMLID_33_">
		<g id="XMLID_34_">
			<circle class="st10" cx="416.2" cy="468.6" r="1.3"/>
			<circle class="st10" cx="429.5" cy="468.6" r="1.3"/>
			<circle class="st10" cx="442.8" cy="468.6" r="1.3"/>
			<circle class="st10" cx="456" cy="468.6" r="1.3"/>
			<circle class="st10" cx="469.3" cy="468.6" r="1.3"/>
			<circle class="st10" cx="482.6" cy="468.6" r="1.3"/>
			<circle class="st10" cx="495.9" cy="468.6" r="1.3"/>
			<circle class="st10" cx="416.2" cy="455.9" r="1.3"/>
			<circle class="st10" cx="429.5" cy="455.9" r="1.3"/>
			<circle class="st10" cx="442.8" cy="455.9" r="1.3"/>
			<circle class="st10" cx="456" cy="455.9" r="1.3"/>
			<circle class="st10" cx="469.3" cy="455.9" r="1.3"/>
			<circle class="st10" cx="482.6" cy="455.9" r="1.3"/>
			<circle class="st10" cx="495.9" cy="455.9" r="1.3"/>
			<circle class="st10" cx="416.2" cy="443.3" r="1.3"/>
			<circle class="st10" cx="429.5" cy="443.3" r="1.3"/>
			<circle class="st10" cx="442.8" cy="443.3" r="1.3"/>
			<circle class="st10" cx="456" cy="443.3" r="1.3"/>
			<circle class="st10" cx="469.3" cy="443.3" r="1.3"/>
			<circle class="st10" cx="482.6" cy="443.3" r="1.3"/>
			<circle class="st10" cx="495.9" cy="443.3" r="1.3"/>
			<circle class="st10" cx="416.2" cy="430.7" r="1.3"/>
			<circle class="st10" cx="429.5" cy="430.7" r="1.3"/>
			<circle class="st10" cx="442.8" cy="430.7" r="1.3"/>
			<circle class="st10" cx="456" cy="430.7" r="1.3"/>
			<circle class="st10" cx="469.3" cy="430.7" r="1.3"/>
			<circle class="st10" cx="482.6" cy="430.7" r="1.3"/>
			<circle class="st10" cx="495.9" cy="430.7" r="1.3"/>
		</g>
		<g id="XMLID_35_">
			<circle id="XMLID_36_" class="st10" cx="559.2" cy="45.2" r="1.3"/>
			<circle id="XMLID_37_" class="st10" cx="559.2" cy="58.5" r="1.3"/>
			<circle id="XMLID_38_" class="st10" cx="559.2" cy="71.8" r="1.3"/>
			<circle id="XMLID_39_" class="st10" cx="559.2" cy="85.1" r="1.3"/>
			<circle id="XMLID_40_" class="st10" cx="559.2" cy="98.3" r="1.3"/>
			<circle id="XMLID_41_" class="st10" cx="559.2" cy="111.6" r="1.3"/>
			<circle id="XMLID_42_" class="st10" cx="559.2" cy="124.9" r="1.3"/>
			<circle id="XMLID_43_" class="st10" cx="571.8" cy="45.2" r="1.3"/>
			<circle id="XMLID_44_" class="st10" cx="571.8" cy="58.5" r="1.3"/>
			<circle id="XMLID_45_" class="st10" cx="571.8" cy="71.8" r="1.3"/>
			<circle id="XMLID_46_" class="st10" cx="571.8" cy="85.1" r="1.3"/>
			<circle id="XMLID_47_" class="st10" cx="571.8" cy="98.3" r="1.3"/>
			<circle id="XMLID_48_" class="st10" cx="571.8" cy="111.6" r="1.3"/>
			<circle id="XMLID_49_" class="st10" cx="571.8" cy="124.9" r="1.3"/>
			<circle id="XMLID_50_" class="st10" cx="584.4" cy="45.2" r="1.3"/>
			<circle id="XMLID_51_" class="st10" cx="584.4" cy="58.5" r="1.3"/>
			<circle id="XMLID_52_" class="st10" cx="584.4" cy="71.8" r="1.3"/>
			<circle id="XMLID_53_" class="st10" cx="584.4" cy="85.1" r="1.3"/>
			<circle id="XMLID_54_" class="st10" cx="584.4" cy="98.3" r="1.3"/>
			<circle id="XMLID_55_" class="st10" cx="584.4" cy="111.6" r="1.3"/>
			<circle id="XMLID_56_" class="st10" cx="584.4" cy="124.9" r="1.3"/>
			<circle id="XMLID_57_" class="st10" cx="597" cy="45.2" r="1.3"/>
			<circle id="XMLID_58_" class="st10" cx="597" cy="58.5" r="1.3"/>
			<circle id="XMLID_59_" class="st10" cx="597" cy="71.8" r="1.3"/>
			<circle id="XMLID_60_" class="st10" cx="597" cy="85.1" r="1.3"/>
			<circle id="XMLID_61_" class="st10" cx="597" cy="98.3" r="1.3"/>
			<circle id="XMLID_62_" class="st10" cx="597" cy="111.6" r="1.3"/>
			<circle id="XMLID_63_" class="st10" cx="597" cy="124.9" r="1.3"/>
		</g>
		<g id="XMLID_64_">
			<circle class="st10" cx="120.4" cy="64.4" r="1.3"/>
			<circle class="st10" cx="107.2" cy="64.4" r="1.3"/>
			<circle class="st10" cx="93.9" cy="64.4" r="1.3"/>
			<circle class="st10" cx="80.6" cy="64.4" r="1.3"/>
			<circle class="st10" cx="67.3" cy="64.4" r="1.3"/>
			<circle class="st10" cx="54" cy="64.4" r="1.3"/>
			<circle class="st10" cx="40.8" cy="64.4" r="1.3"/>
			<circle class="st10" cx="120.4" cy="77" r="1.3"/>
			<circle class="st10" cx="107.2" cy="77" r="1.3"/>
			<circle class="st10" cx="93.9" cy="77" r="1.3"/>
			<circle class="st10" cx="80.6" cy="77" r="1.3"/>
			<circle class="st10" cx="67.3" cy="77" r="1.3"/>
			<circle class="st10" cx="54" cy="77" r="1.3"/>
			<circle class="st10" cx="40.8" cy="77" r="1.3"/>
			<circle class="st10" cx="120.4" cy="89.6" r="1.3"/>
			<circle class="st10" cx="107.2" cy="89.6" r="1.3"/>
			<circle class="st10" cx="93.9" cy="89.6" r="1.3"/>
			<circle class="st10" cx="80.6" cy="89.6" r="1.3"/>
			<circle class="st10" cx="67.3" cy="89.6" r="1.3"/>
			<circle class="st10" cx="54" cy="89.6" r="1.3"/>
			<circle class="st10" cx="40.8" cy="89.6" r="1.3"/>
			<circle class="st10" cx="120.4" cy="102.2" r="1.3"/>
			<circle class="st10" cx="107.2" cy="102.2" r="1.3"/>
			<circle class="st10" cx="93.9" cy="102.2" r="1.3"/>
			<circle class="st10" cx="80.6" cy="102.2" r="1.3"/>
			<circle class="st10" cx="67.3" cy="102.2" r="1.3"/>
			<circle class="st10" cx="54" cy="102.2" r="1.3"/>
			<circle class="st10" cx="40.8" cy="102.2" r="1.3"/>
		</g>
	</g>
</g>
</svg>
